<?xml version="1.0" standalone="no"?>
<!DOCTYPE svg PUBLIC "-//W3C//DTD SVG 20010904//EN"
 "http://www.w3.org/TR/2001/REC-SVG-20010904/DTD/svg10.dtd">
<svg version="1.0" xmlns="http://www.w3.org/2000/svg"
 width="1715.000000pt" height="1715.000000pt" viewBox="0 0 1715.000000 1715.000000"
 preserveAspectRatio="xMidYMid meet">
<metadata>
Created by potrace 1.11, written by Peter Selinger 2001-2013
</metadata>
<g transform="translate(0.000000,1715.000000) scale(0.100000,-0.100000)"
fill="#000000" stroke="none">
<path d="M2770 17143 c-291 -23 -592 -92 -865 -200 -1028 -404 -1749 -1337
-1887 -2443 -19 -155 -19 -11695 0 -11850 162 -1300 1126 -2342 2402 -2594
273 -54 -101 -51 6155 -51 6256 0 5882 -3 6155 51 1193 236 2128 1171 2364
2364 54 273 51 -101 51 6155 0 6256 3 5882 -51 6155 -198 1002 -897 1839
-1849 2213 -221 87 -437 144 -695 184 -109 17 -428 18 -5925 19 -3196 0 -5830
-1 -5855 -3z m10970 -3528 l0 -1145 -1915 0 -1915 0 0 -5185 0 -5185 -1325 0
-1325 0 0 5185 0 5185 -1925 0 -1925 0 0 1145 0 1145 5165 0 5165 0 0 -1145z"/>
</g>
</svg>
